<?xml version="1.0" encoding="UTF-8" standalone="no"?>
<svg width="24px" height="24px" viewBox="0 0 24 24" version="1.1" xmlns="http://www.w3.org/2000/svg" xmlns:xlink="http://www.w3.org/1999/xlink">
    <!-- Generator: Sketch 43.1 (39012) - http://www.bohemiancoding.com/sketch -->
    <title>Icon</title>
    <desc>Created with Sketch.</desc>
    <defs></defs>
    <g id="Page-1" stroke="none" stroke-width="1" fill="none" fill-rule="evenodd">
        <g id="Icon" fill="#999999">
            <path d="M12,19.5 C7.85786438,19.5 4.5,16.1421356 4.5,12 C4.5,7.85786438 7.85786438,4.5 12,4.5 C16.1421356,4.5 19.5,7.85786438 19.5,12 C19.5,16.1421356 16.1421356,19.5 12,19.5 Z M12,15.5 C13.9329966,15.5 15.5,13.9329966 15.5,12 C15.5,10.0670034 13.9329966,8.5 12,8.5 C10.0670034,8.5 8.5,10.0670034 8.5,12 C8.5,13.9329966 10.0670034,15.5 12,15.5 Z" id="Combined-Shape"></path>
            <path d="M9.75792789,2.96828842 C9.89162063,2.43351749 10.4433532,2 11.0093689,2 L12.9906311,2 C13.5480902,2 14.1070175,2.42807007 14.2420721,2.96828842 L14.7579279,5.03171158 C14.8916206,5.56648251 14.5490248,6 14.009222,6 L9.99077797,6 C9.44358641,6 9.10701752,5.57192993 9.24207211,5.03171158 L9.75792789,2.96828842 Z" id="Rectangle-2"></path>
            <path d="M18.7006556,5.54245281 C19.2306272,5.39084865 19.8819306,5.65190431 20.1649385,6.1420883 L21.1555696,7.8579117 C21.4342991,8.3406854 21.3430432,9.03876573 20.9427277,9.42583561 L19.4136787,10.9042914 C19.0173999,11.2874582 18.4706648,11.2075202 18.2007634,10.7400373 L16.1915414,7.25996268 C15.9179456,6.78608089 16.1203807,6.28056864 16.6557508,6.12742017" id="Rectangle-2"></path>
            <path d="M20.9427277,14.5741644 C21.3390066,14.9573312 21.4385774,15.6519043 21.1555696,16.1420883 L20.1649385,17.8579117 C19.886209,18.3406854 19.2360257,18.6106957 18.7006556,18.4575472 L16.6557508,17.8725798 C16.1257793,17.7209757 15.92164,17.2075202 16.1915414,16.7400373 L18.2007634,13.2599627 C18.4743592,12.7860809 19.0133632,12.7086387 19.4136787,13.0957086" id="Rectangle-2"></path>
            <path d="M9.75792789,18.9682884 C9.89162063,18.4335175 10.4433532,18 11.0093689,18 L12.9906311,18 C13.5480902,18 14.1070175,18.4280701 14.2420721,18.9682884 L14.7579279,21.0317116 C14.8916206,21.5664825 14.5490248,22 14.009222,22 L9.99077797,22 C9.44358641,22 9.10701752,21.5719299 9.24207211,21.0317116 L9.75792789,18.9682884 Z" id="Rectangle-2" transform="translate(12.000000, 20.000000) rotate(-180.000000) translate(-12.000000, -20.000000) "></path>
            <path d="M2.82972466,6.96828842 C2.9634174,6.43351749 3.51514995,6 4.08116567,6 L6.06242787,6 C6.61988692,6 7.17881429,6.42807007 7.31386888,6.96828842 L7.82972466,9.03171158 C7.9634174,9.56648251 7.62082159,10 7.0810188,10 L3.06257474,10 C2.51538318,10 2.17881429,9.57192993 2.31386888,9.03171158 L2.82972466,6.96828842 Z" id="Rectangle-2" transform="translate(5.071797, 8.000000) rotate(-60.000000) translate(-5.071797, -8.000000) "></path>
            <path d="M2.82972466,14.9682884 C2.9634174,14.4335175 3.51514995,14 4.08116567,14 L6.06242787,14 C6.61988692,14 7.17881429,14.4280701 7.31386888,14.9682884 L7.82972466,17.0317116 C7.9634174,17.5664825 7.62082159,18 7.0810188,18 L3.06257474,18 C2.51538318,18 2.17881429,17.5719299 2.31386888,17.0317116 L2.82972466,14.9682884 Z" id="Rectangle-2" transform="translate(5.071797, 16.000000) rotate(-120.000000) translate(-5.071797, -16.000000) "></path>
        </g>
    </g>
</svg>